HIERARCHY
ROOT Pelvis
{
	OFFSET 0.000000 0.000000 0.000000
	CHANNELS 6 Xposition Yposition Zposition Xrotation Yrotation Zrotation
	JOINT LeftUpLeg_virtual
	{
		OFFSET 0.000000 0.000000 0.000000
		CHANNELS 3 Xrotation Yrotation Zrotation
		JOINT LeftUpLeg
		{
			OFFSET 8.479700 -4.795502 -0.379100
			CHANNELS 3 Xrotation Yrotation Zrotation
			JOINT LeftLeg
			{
				OFFSET 0.024144 -32.555107 0.112900
				CHANNELS 3 Xrotation Yrotation Zrotation
				JOINT LeftFoot
				{
					OFFSET -0.024144 -32.638630 -3.012600
					CHANNELS 3 Xrotation Yrotation Zrotation
					JOINT LeftToeBase
					{
						OFFSET 0.970200 -13.225400 11.864200
						CHANNELS 3 Xrotation Yrotation Zrotation
						End Site
						{
							OFFSET 0 0 0
						}
					}
				}
			}
		}
	}
	JOINT RightUpLeg_virtual
	{
		OFFSET 0.000000 0.000000 0.000000
		CHANNELS 3 Xrotation Yrotation Zrotation
		JOINT RightUpLeg
		{
			OFFSET -8.479700 -4.795502 -0.379100
			CHANNELS 3 Xrotation Yrotation Zrotation
			JOINT RightLeg
			{
				OFFSET -0.023144 -32.555092 0.112900
				CHANNELS 3 Xrotation Yrotation Zrotation
				JOINT RightFoot
				{
					OFFSET 0.023144 -32.638641 -3.012700
					CHANNELS 3 Xrotation Yrotation Zrotation
					JOINT RightToeBase
					{
						OFFSET -0.970200 -13.225400 11.864200
						CHANNELS 3 Xrotation Yrotation Zrotation
						End Site
						{
							OFFSET 0 0 0
						}
					}
				}
			}
		}
	}
	JOINT Hips_virtual
	{
		OFFSET 0.000000 0.000000 0.000000
		CHANNELS 3 Xrotation Yrotation Zrotation
		JOINT Hips
		{
			OFFSET -0.000000 -0.000000 -0.000000
			CHANNELS 3 Xrotation Yrotation Zrotation
			JOINT Spine
			{
				OFFSET 0.000000 7.722000 1.166200
				CHANNELS 3 Xrotation Yrotation Zrotation
				JOINT Spine1
				{
					OFFSET 0.000000 12.024101 0.248800
					CHANNELS 3 Xrotation Yrotation Zrotation
					JOINT Spine2
					{
						OFFSET 0.000000 11.502998 -0.491200
						CHANNELS 3 Xrotation Yrotation Zrotation
						JOINT Neck_virtual
						{
							OFFSET 0.000000 0.000000 0.000000
							CHANNELS 3 Xrotation Yrotation Zrotation
							JOINT Neck
							{
								OFFSET 0.000000 18.430702 -3.123100
								CHANNELS 3 Xrotation Yrotation Zrotation
								JOINT Head
								{
									OFFSET 0.000000 9.051102 1.034000
									CHANNELS 3 Xrotation Yrotation Zrotation
									End Site
									{
										OFFSET 0 0 0
									}
								}
							}
						}
						JOINT LeftShoulder_virtual
						{
							OFFSET 0.000000 0.000000 0.000000
							CHANNELS 3 Xrotation Yrotation Zrotation
							JOINT LeftShoulder
							{
								OFFSET 6.197800 13.665199 -4.064700
								CHANNELS 3 Xrotation Yrotation Zrotation
								JOINT LeftArm
								{
									OFFSET 7.778100 -0.187103 -1.709300
									CHANNELS 3 Xrotation Yrotation Zrotation
									JOINT LeftForeArm
									{
										OFFSET 22.049376 0.000000 0.000000
										CHANNELS 3 Xrotation Yrotation Zrotation
										JOINT LeftHand
										{
											OFFSET 23.009392 0.000000 0.000000
											CHANNELS 3 Xrotation Yrotation Zrotation
											End Site
											{
												OFFSET 0 0 0
											}
										}
									}
								}
							}
						}
						JOINT RightShoulder_virtual
						{
							OFFSET 0.000000 0.000000 0.000000
							CHANNELS 3 Xrotation Yrotation Zrotation
							JOINT RightShoulder
							{
								OFFSET -6.197800 13.665199 -4.064700
								CHANNELS 3 Xrotation Yrotation Zrotation
								JOINT RightArm
								{
									OFFSET -7.778100 -0.187103 -1.709300
									CHANNELS 3 Xrotation Yrotation Zrotation
									JOINT RightForeArm
									{
										OFFSET -22.049376 0.000000 0.000000
										CHANNELS 3 Xrotation Yrotation Zrotation
										JOINT RightHand
										{
											OFFSET -23.009392 0.000000 0.000000
											CHANNELS 3 Xrotation Yrotation Zrotation
											End Site
											{
												OFFSET 0 0 0
											}
										}
									}
								}
							}
						}
					}
				}
			}
		}
	}
}
MOTION
Frames: 5
Frame Time: 0.03333333
-2.064088 36.868187 71.718468 0.000000 0.000000 0.000000 20.481982 -24.243644 -5.633752 -4.727730 6.162925 -0.542078 92.409113 -14.011915 -1.571788 27.040564 -5.239883 -27.866214 0.000000 0.000000 0.000000 20.481982 -24.243644 -5.633752 5.893211 10.785571 -10.165581 60.088528 11.288267 -14.175003 46.328456 7.473408 19.684940 0.000000 0.000000 0.000000 20.481982 -24.243644 -5.633752 0.000001 0.000000 0.000001 5.370665 0.379329 0.653827 -5.387902 1.463338 2.228126 0.000000 0.000000 0.000000 -5.408686 1.438967 2.129568 -64.248700 1.118116 14.686595 0.000000 0.000000 0.000000 -5.408686 1.438967 2.129568 -18.927007 2.423267 -16.209301 6.399254 13.475593 -49.024038 73.253321 -19.968943 30.111377 0.000000 0.000000 0.000000 -5.408686 1.438967 2.129568 -18.645064 3.158385 16.723942 7.365364 -4.012498 58.411675 -23.798080 35.944222 23.539270 0.000000 0.000000 0.000000 
-2.046882 36.653465 72.591629 0.000000 0.000000 0.000000 21.527228 -24.383786 -5.646369 -4.273054 5.433558 -1.100796 90.890461 -13.665976 -1.428939 27.310163 -5.321357 -27.935633 0.000000 0.000000 0.000000 21.527228 -24.383786 -5.646369 5.804800 10.340452 -9.984324 59.743323 11.829392 -13.900369 45.571350 7.408498 19.918039 0.000000 0.000000 0.000000 21.527228 -24.383786 -5.646369 0.000000 0.000000 0.000000 5.325996 0.368492 0.763146 -5.487561 1.423595 2.351741 0.000000 0.000000 0.000000 -5.507080 1.408916 2.254501 -65.359555 0.986974 14.866096 0.000000 0.000000 0.000000 -5.507080 1.408916 2.254501 -19.123842 2.643943 -15.817977 8.811191 13.503261 -48.194744 72.720116 -20.634404 30.098690 0.000000 0.000000 0.000000 -5.507080 1.408916 2.254501 -18.793160 2.934421 16.971143 7.755219 -2.903526 58.461303 -24.989879 38.783727 24.839383 0.000000 0.000000 0.000000 
-2.058865 36.408173 73.379951 0.000000 0.000000 0.000000 22.619954 -24.490308 -5.584781 -3.968443 4.644798 -1.684857 89.558513 -12.848493 -1.198961 27.469148 -5.362436 -27.935561 0.000000 0.000000 0.000000 22.619954 -24.490308 -5.584781 5.860598 10.000302 -9.891895 59.059485 12.021247 -13.621064 45.964048 7.585191 20.224661 0.000000 0.000000 0.000000 22.619954 -24.490308 -5.584781 -0.000001 0.000000 -0.000001 5.289405 0.399104 0.813333 -5.579769 1.386652 2.467673 0.000000 0.000000 0.000000 -5.597973 1.382301 2.371570 -66.531739 0.851081 14.977234 0.000000 0.000000 0.000000 -5.597973 1.382301 2.371570 -19.324738 2.867697 -15.372843 11.222557 12.997950 -47.136085 70.495851 -22.628999 28.974475 0.000000 0.000000 0.000000 -5.597973 1.382301 2.371570 -18.954769 2.720317 17.238101 8.007429 -1.543120 58.369007 -23.446764 42.276436 23.971102 0.000000 0.000000 0.000000 
-2.067553 36.114403 74.205902 0.000000 0.000000 0.000000 23.762201 -24.527836 -5.495346 -3.609044 3.716948 -2.398346 88.119966 -11.665441 -0.877968 27.607100 -5.422248 -28.066531 0.000000 0.000000 0.000000 23.762201 -24.527836 -5.495346 5.998074 9.663196 -9.862816 58.287755 11.907826 -13.328838 46.797321 7.781775 20.333680 0.000000 0.000000 0.000000 23.762201 -24.527836 -5.495346 -0.000002 0.000000 0.000000 5.262521 0.444036 0.842310 -5.663055 1.353729 2.575408 0.000000 0.000000 0.000000 -5.679921 1.360151 2.479900 -67.748469 0.721240 15.041646 0.000000 0.000000 0.000000 -5.679921 1.360151 2.479900 -19.520749 3.090940 -14.887415 13.533073 12.286159 -45.847334 67.504720 -25.443308 27.159214 0.000000 0.000000 0.000000 -5.679921 1.360151 2.479900 -19.127496 2.546782 17.483035 8.238800 -0.098710 58.067994 -19.658253 46.110163 21.064286 0.000000 0.000000 0.000000 
-2.064242 35.782547 75.086250 0.000000 0.000000 0.000000 24.971646 -24.477533 -5.420856 -3.225962 2.749994 -3.137070 86.492345 -10.647835 -0.548710 27.806446 -5.508845 -28.275351 0.000000 0.000000 0.000000 24.971646 -24.477533 -5.420856 6.111362 9.394628 -9.777689 57.648975 11.534668 -13.128833 47.363991 7.946108 20.490853 0.000000 0.000000 0.000000 24.971646 -24.477533 -5.420856 0.000000 -0.000001 0.000001 5.247063 0.482837 0.883622 -5.734331 1.325687 2.674348 0.000000 0.000000 0.000000 -5.749948 1.343242 2.579083 -68.979754 0.603834 15.062030 0.000000 0.000000 0.000000 -5.749948 1.343242 2.579083 -19.699145 3.311100 -14.383118 15.604015 11.619179 -44.492412 63.822032 -28.749161 24.713738 0.000000 0.000000 0.000000 -5.749948 1.343242 2.579083 -19.283608 2.435054 17.604324 8.641510 1.247376 57.688973 -13.643556 49.929250 16.025053 0.000000 0.000000 0.000000 
